<svg id="Capa_1" enable-background="new 0 0 512 512" height="12" width="12" viewBox="0 0 512 512"  xmlns="http://www.w3.org/2000/svg"><g><ellipse cx="256" cy="253.371" fill="#4d3a99" rx="256" ry="100.185"/><path d="m256 322.651c-64.619 0-124.906-9.666-169.756-27.218-43.773-17.13-55.339-35.004-55.339-42.061s11.566-24.931 55.339-42.061c44.85-17.552 105.137-27.218 169.756-27.218s124.906 9.667 169.756 27.218c43.773 17.13 55.339 35.004 55.339 42.061s-11.566 24.931-55.339 42.061c-44.85 17.551-105.137 27.218-169.756 27.218z" fill="#4d3a99"/><g><path d="m256 216.768c-4.267 0-7.726-3.459-7.726-7.726v-107.455c0-4.267 3.459-7.726 7.726-7.726s7.726 3.459 7.726 7.726v107.455c0 4.267-3.459 7.726-7.726 7.726z" fill="#cacae0"/></g><path d="m256 510.569c-17.05 0-107.742-1.711-181.02-75.303s-74.98-164.674-74.98-181.797c29.366 5.698 85.418 12.409 151.018-6.766 44.498-13.007 78.253-33.391 100.038-49.403 2.96-2.176 6.964-2.201 9.953-.065 24.052 17.183 64.875 41.673 121.307 53.978 55.499 12.102 102.074 7.262 129.684 2.256 0 17.123-1.703 108.205-74.981 181.797s-163.969 75.303-181.019 75.303z" fill="#d128a2"/><g><path d="m465.583 258.544c-.601 25.631-7.144 108.654-74.921 176.722-55.986 56.226-122.134 70.492-157.84 74.094 11.028 1.113 19.156 1.209 23.179 1.209 17.05 0 107.742-1.711 181.019-75.303s74.98-164.674 74.98-181.797c-12.108 2.196-27.863 4.359-46.417 5.075z" fill="#b0127a"/></g><g fill="#f57d41"><path d="m276.511 302.298c0 17.572-9.183 31.817-20.511 31.817s-20.511-14.245-20.511-31.817 20.511-31.816 20.511-31.816 20.511 14.245 20.511 31.816z"/><path d="m276.511 414.936c0 17.572-20.511 31.817-20.511 31.817s-20.511-14.245-20.511-31.817 9.183-31.817 20.511-31.817 20.511 14.245 20.511 31.817z"/></g><g fill="#fa0"><path d="m201.673 383.937c12.425-12.425 28.991-16.004 37.002-7.994 8.01 8.01 4.431 24.576-7.994 37.002-12.425 12.425-37.002 7.994-37.002 7.994s-4.431-24.577 7.994-37.002z"/><path d="m281.32 304.29c12.425-12.425 37.002-7.994 37.002-7.994s4.431 24.576-7.994 37.002c-12.425 12.425-28.991 16.004-37.002 7.994s-4.431-24.577 7.994-37.002z"/></g><g fill="#f57d41"><path d="m199.681 338.106c17.572 0 31.817 9.183 31.817 20.511s-14.245 20.511-31.817 20.511-31.817-20.511-31.817-20.511 14.245-20.511 31.817-20.511z"/><path d="m312.319 338.106c17.572 0 31.817 20.511 31.817 20.511s-14.245 20.511-31.817 20.511-31.817-9.183-31.817-20.511 14.245-20.511 31.817-20.511z"/></g><g fill="#fa0"><path d="m230.68 304.29c12.425 12.425 16.004 28.991 7.994 37.002-8.01 8.01-24.576 4.431-37.002-7.994s-7.994-37.002-7.994-37.002 24.577-4.431 37.002 7.994z"/><path d="m310.327 383.937c12.425 12.425 7.994 37.002 7.994 37.002s-24.576 4.431-37.002-7.994-16.004-28.991-7.994-37.002c8.011-8.01 24.577-4.431 37.002 7.994z"/></g><circle cx="256" cy="358.617" fill="#fff" r="34.762"/><path d="m299.783 73.257c0 24.181-19.602 43.783-43.783 43.783s-43.783-19.602-43.783-43.783c0-19.687 29.022-56.825 39.809-69.949 2.058-2.504 5.89-2.504 7.948 0 10.787 13.124 39.809 50.262 39.809 69.949z" fill="#fa0"/><path d="m280.586 92.454c0 13.578-11.007 24.586-24.586 24.586-13.578 0-24.586-11.007-24.586-24.586s24.586-41.94 24.586-41.94 24.586 28.362 24.586 41.94z" fill="#f57d41"/><g fill="#fa0"><circle cx="78.573" cy="357.336" r="7.726"/><circle cx="110.129" cy="357.336" r="7.726"/><circle cx="399.837" cy="357.336" r="7.726"/><circle cx="431.393" cy="357.336" r="7.726"/></g></g></svg>